name D:\school\WTK\thesis\model\3dpredictsim\Results\batch_windlass\Pog_s1_tmt_bCst_d05_k500_WL30_ig24.mot
datacolumns 128
datarows 4
range 0.53046733 0.56229537
endheader
time	pelvis_tilt	pelvis_list	pelvis_rotation	pelvis_tx	pelvis_ty	pelvis_tz	hip_flexion_l	hip_adduction_l	hip_rotation_l	hip_flexion_r	hip_adduction_r	hip_rotation_r	knee_angle_l	knee_angle_r	ankle_angle_l	ankle_angle_r	subtalar_angle_l	subtalar_angle_r	tmt_angle_l	tmt_angle_r	mtp_angle_l	mtp_angle_r	lumbar_extension	lumbar_bending	lumbar_rotation	arm_flex_l	arm_add_l	arm_rot_l	arm_flex_r	arm_add_r	arm_rot_r	elbow_flex_l	elbow_flex_r	pro_sup_l	pro_sup_r	glut_med1_l/activation	glut_med2_l/activation	glut_med3_l/activation	glut_min1_l/activation	glut_min2_l/activation	glut_min3_l/activation	semimem_l/activation	semiten_l/activation	bifemlh_l/activation	bifemsh_l/activation	sar_l/activation	add_long_l/activation	add_brev_l/activation	add_mag1_l/activation	add_mag2_l/activation	add_mag3_l/activation	tfl_l/activation	pect_l/activation	grac_l/activation	glut_max1_l/activation	glut_max2_l/activation	glut_max3_l/activation	iliacus_l/activation	psoas_l/activation	quad_fem_l/activation	gem_l/activation	peri_l/activation	rect_fem_l/activation	vas_med_l/activation	vas_int_l/activation	vas_lat_l/activation	med_gas_l/activation	lat_gas_l/activation	soleus_l/activation	tib_post_l/activation	flex_dig_l/activation	flex_hal_l/activation	tib_ant_l/activation	per_brev_l/activation	per_long_l/activation	per_tert_l/activation	ext_dig_l/activation	ext_hal_l/activation	ercspn_l/activation	intobl_l/activation	extobl_l/activation	glut_med1_r/activation	glut_med2_r/activation	glut_med3_r/activation	glut_min1_r/activation	glut_min2_r/activation	glut_min3_r/activation	semimem_r/activation	semiten_r/activation	bifemlh_r/activation	bifemsh_r/activation	sar_r/activation	add_long_r/activation	add_brev_r/activation	add_mag1_r/activation	add_mag2_r/activation	add_mag3_r/activation	tfl_r/activation	pect_r/activation	grac_r/activation	glut_max1_r/activation	glut_max2_r/activation	glut_max3_r/activation	iliacus_r/activation	psoas_r/activation	quad_fem_r/activation	gem_r/activation	peri_r/activation	rect_fem_r/activation	vas_med_r/activation	vas_int_r/activation	vas_lat_r/activation	med_gas_r/activation	lat_gas_r/activation	soleus_r/activation	tib_post_r/activation	flex_dig_r/activation	flex_hal_r/activation	tib_ant_r/activation	per_brev_r/activation	per_long_r/activation	per_tert_r/activation	ext_dig_r/activation	ext_hal_r/activation	ercspn_r/activation	intobl_r/activation	extobl_r/activation	
          0.53046733	         -2.91931093	          1.38459578	         -5.42487110	          0.66308416	          0.86156806	          0.00115871	         30.72187301	          2.07862341	         -2.57669369	        -16.69841097	         -1.25541354	          7.97623717	        -18.20804147	        -11.65321647	          1.10157719	         -1.36261809	          3.24653189	         14.31062789	         -0.18294269	         -7.85262497	          0.71049787	         28.66051039	         -0.79542683	          0.08729253	          1.73028394	        -10.19875155	        -13.62263519	          6.33235304	          4.24333095	        -13.47795829	         14.71743414	         18.85547012	         35.28675739	         86.51662706	         86.51662706	          0.05884084	          0.05000034	          0.07382334	          0.05000040	          0.05000041	          0.05000101	          0.05884114	          0.05884112	          0.07466824	          0.05367998	          0.05000186	          0.11272083	          0.18028260	          0.11669020	          0.14895535	          0.11798630	          0.05000041	          0.05883888	          0.05884177	          0.05000068	          0.05823589	          0.12302955	          0.05741893	          0.05003895	          0.27297810	          0.07251799	          0.05194600	          0.05000005	          0.14523233	          0.15045411	          0.12329315	          0.05884120	          0.05884120	          0.05884112	          0.05000003	          0.05000026	          0.05000067	          0.48367412	          0.25472908	          0.15425207	          0.19231341	          0.54308618	          0.05000003	          0.05000004	          0.09592131	          0.11171272	          0.27603172	          0.08755808	          0.05000002	          0.26689218	          0.17861251	          0.08525223	          0.05000110	          0.05000016	          0.05000011	          0.06009395	          0.06924591	          0.13068662	          0.10913249	          0.05000066	          0.05000127	          0.05000059	          0.23688552	          0.06321045	          0.05000048	          0.05000111	          0.05000075	          0.05000054	          0.25447284	          0.45470730	          0.05000008	          0.05000018	          0.05000004	          0.18571904	          0.11884583	          0.07349832	          0.09506027	          0.23715142	          0.30668611	          0.20199727	          0.17256305	          0.17076039	          0.22135730	          0.05000009	          0.12304866	          0.18025941	          0.05000017	          0.10762846	          0.05000017	          0.05000001	          0.05000028	          0.06816168	
          0.54107668	         -2.90630719	          1.47652391	         -5.64622480	          0.67941496	          0.86054004	          0.00095790	         30.03854388	          2.48203619	         -2.33838489	        -16.39363014	         -1.50390669	          7.72497769	        -18.10068111	        -13.73995608	          0.66485403	         -2.36193051	          2.71657877	         15.13789262	         -0.22105129	         -8.48956636	          0.86434768	         29.24852750	         -0.58360745	         -0.16782696	          1.79774316	        -11.17693238	        -13.62173707	          6.14856069	          3.96745530	        -13.51330447	         15.03758243	         18.74871973	         36.17329870	         86.51662706	         86.51662706	          0.05000002	          0.05000012	          0.09948653	          0.05000005	          0.05000009	          0.05000014	          0.05000004	          0.05000007	          0.06344904	          0.05000005	          0.05000070	          0.09578426	          0.15319458	          0.36898535	          0.27317237	          0.11039377	          0.05000017	          0.05000113	          0.05000079	          0.05884106	          0.05884127	          0.14063089	          0.05000006	          0.06924522	          0.53164658	          0.10287745	          0.06700047	          0.06924560	          0.27512527	          0.26665922	          0.22754969	          0.05000007	          0.05000007	          0.05000000	          0.05000014	          0.05884131	          0.05000160	          0.60907364	          0.21645502	          0.13107509	          0.45846356	          0.57732372	          0.06736685	          0.05000000	          0.08150874	          0.09492742	          0.23455684	          0.07440214	          0.05000015	          0.22679058	          0.15177528	          0.07244279	          0.05000314	          0.05000014	          0.05000039	          0.05106461	          0.05884151	          0.19259180	          0.24823298	          0.29859172	          0.09500160	          0.13281346	          0.20129260	          0.05371349	          0.05000029	          0.05000086	          0.05000069	          0.05000100	          0.21623726	          0.38638588	          0.05000010	          0.05884118	          0.05884136	          0.15781401	          0.10098921	          0.15629465	          0.08077744	          0.20151844	          0.26060526	          0.17164635	          0.14663476	          0.14510301	          0.18809751	          0.15038995	          0.10456017	          0.15317474	          0.05000046	          0.19543406	          0.05000620	          0.05000003	          0.07840294	          0.06559118	
          0.55168602	         -2.88957900	          1.57994961	         -5.84469655	          0.69589930	          0.85922995	          0.00078728	         29.17298598	          2.83666852	         -2.01746032	        -16.00259834	         -1.74161726	          7.46116738	        -18.38725482	        -16.02593114	          0.46752598	         -3.29715539	          2.12361613	         15.87485715	         -0.44023409	         -8.83155868	          0.98261281	         29.00347933	         -0.36387488	         -0.44175265	          1.85213410	        -12.12877018	        -13.63698924	          6.05944262	          3.63949562	        -13.55629153	         15.30566852	         18.59537425	         37.05579894	         86.51662706	         86.51662706	          0.32504571	          0.32171642	          0.40918831	          0.12011141	          0.05000036	          0.41713279	          0.08839147	          0.10383347	          0.09635335	          0.05000006	          0.05000020	          0.08139257	          0.22907966	          0.31354384	          0.23212739	          0.15400192	          0.05000015	          0.06924595	          0.10513928	          0.05000006	          0.05000015	          0.13964190	          0.05884107	          0.05884091	          0.45176450	          0.08741976	          0.25471027	          0.05884117	          0.24171726	          0.25105112	          0.20810336	          0.05884105	          0.05884094	          0.05884111	          0.05000002	          0.05000027	          0.05000049	          0.57586526	          0.18393179	          0.11138053	          0.38957813	          0.57537971	          0.05724471	          0.05000002	          0.08148954	          0.08066419	          0.25134876	          0.06322295	          0.05000029	          0.19271442	          0.12897049	          0.06155802	          0.05000379	          0.05884098	          0.05884130	          0.05000005	          0.05000047	          0.17184507	          0.30492752	          0.25372718	          0.08072842	          0.11285779	          0.23653910	          0.05884351	          0.05884160	          0.05883997	          0.05884165	          0.05884196	          0.18374678	          0.37539225	          0.05884115	          0.05000190	          0.05000024	          0.13410181	          0.08581518	          0.13281075	          0.06864031	          0.17123946	          0.22144825	          0.14585577	          0.12460231	          0.12330077	          0.15983514	          0.22380453	          0.11523328	          0.15581831	          0.25708690	          0.26368672	          0.08953819	          0.08135834	          0.06662258	          0.05884114	
          0.56229537	         -2.87163943	          1.69260981	         -6.01479577	          0.71229348	          0.85774389	          0.00061604	         28.18291814	          3.16913101	         -1.68831717	        -15.48203875	         -1.96626674	          7.20008867	        -18.65574207	        -18.55993252	          0.52296373	         -4.09445476	          1.47531165	         16.49806711	         -0.60247891	         -8.68539556	          1.15067420	         27.48850522	         -0.15734279	         -0.72765323	          1.89490283	        -12.99553072	        -13.66284280	          6.08356160	          3.30298136	        -13.60521335	         15.53913401	         18.35914132	         37.89682581	         86.51662706	         86.51662706	          0.41728161	          0.49367837	          0.56262041	          0.31760881	          0.42140233	          0.42353019	          0.07511033	          0.10340222	          0.08187596	          0.06856829	          0.05000035	          0.06916301	          0.19465950	          0.26643264	          0.19724953	          0.16045511	          0.05000017	          0.05884158	          0.08934179	          0.30078076	          0.21578054	          0.16304705	          0.05000003	          0.05000003	          0.38388504	          0.07428485	          0.21643946	          0.05000005	          0.32204318	          0.33607052	          0.27768100	          0.05000000	          0.05000001	          0.05000000	          0.07769836	          0.05000074	          0.05000013	          0.69698451	          0.15629529	          0.09464516	          0.45151565	          0.57162609	          0.37366220	          0.06566155	          0.06924564	          0.06854406	          0.21358262	          0.05372354	          0.05000005	          0.18855240	          0.10959234	          0.05230893	          0.05000547	          0.05000018	          0.05000030	          0.05000024	          0.06924453	          0.14699472	          0.25911094	          0.21560369	          0.06859877	          0.09590050	          0.27112142	          0.05000236	          0.05000061	          0.05000090	          0.05000084	          0.05000083	          0.16450876	          0.35307346	          0.05000007	          0.05000032	          0.05000037	          0.15522423	          0.07292112	          0.11285541	          0.05832684	          0.14551003	          0.18817475	          0.12394034	          0.10588045	          0.10477444	          0.13581938	          0.21654808	          0.12342614	          0.13240792	          0.21845860	          0.29440032	          0.07608477	          0.12237676	          0.05661226	          0.05000004	
